<svg class="logo" width="146" height="41" viewBox="0 0 146 41" version="1.1" xmlns="http://www.w3.org/2000/svg" xmlns:xlink="http://www.w3.org/1999/xlink"><title>William Hill</title><defs><linearGradient id="willhill-logo-grad-default" gradientUnits="userSpaceOnUse" x1="-644.6273" y1="298.9242" x2="-644.6273" y2="300.4787" gradientTransform="matrix(35.061 0 0 -22.8919 22618.8145 6874.1787)"><stop offset="0" style="stop-color:#B88A00"></stop><stop offset="1" style="stop-color:#F9D864"></stop></linearGradient></defs><path fill="url(#willhill-logo-grad-default)" d="M1.6,2.3c3.2-4.4,10.5-1.2,15-0.3c1.4-1.4,5.4-2,5.6-0.6c0.3,1.3-1.8,2.2-3.1,2.2 c-0.4,0-0.8,0-1.2-0.1c-1.7,2.2-4.7,7.2-6.4,11.9c-1.8,4.7-3.6,9.1-6.6,11.2l0,0c0.6,0.2,4.1-1,6.8-6.3c4.5-9,6.5-10.8,10.1-12 c0.3-0.1,0.5,0.1,0.3,0.3c-1.7,2.2-2.3,6.5-3,10.1c-0.6,3.3-2.9,6.7-4.6,8.5c1.8-0.6,3-1.5,4.4-3.9c1.4-2.4,7.8-13.3,11.5-17.8 c3.7-4.5,7.2-5.3,9.8-5.3s3.9,1.4,4.1,3.5c0,0.1-0.1,0.1-0.1,0.1c-1.7-3.1-6.3-2.1-9.1,0.4c-2.8,2.5-10.8,15.7-13.1,19.4 c-3.5,5.6-8.4,5.6-10.3,5.3c-0.2,0-0.3-0.1-0.4-0.3c-0.1-0.2,0-0.3,0.1-0.5l0,0l1.3-1.7c2.5-2.9,4.5-10.1,4.6-11.9 c-2.2,1.8-5.4,10.5-9.6,13C5,29,0.4,29.4,0,27.5c-0.2-1.1,2.2-1.6,3.3-1.3c2.5-2.3,3.5-8.5,5.4-13c1.6-3.8,3.6-7.5,6.8-10.1l0,0 C7.8,1.3,5.1,2.6,3.9,3.7C2.5,5,2.6,7.6,3.5,9.4C1,8.9-0.8,5.5,1.6,2.3z M51.2,2.6c0,0-13.2,18.9-14.3,20.5c-1.1,1.6-2.7,3.9-1.4,4 c1.6,0.1,7.1-6.2,9-8.7l0,0C48.1,13.1,55,3.2,55.3,2.7l0,0h3.8c0,0-13.2,18.9-14.3,20.5c-1.1,1.6-2.7,3.9-1.4,4 c1.6,0.1,6.8-5.9,8.8-8.5c2.1-3.1,4.6-6.7,4.8-7l0,0h3.8c0,0-7,10-8.1,11.6c-1.1,1.6-2.7,3.9-1.4,4c1.3,0.1,5.5-4.4,7.7-7.1 c0.6-1,1.3-2.1,2.1-3c3.7-4.6,7.6-7.2,10.7-5.6c0.8,0.4,1,1.2,0.9,2.2c0.8-1.2,1.4-2.1,1.4-2.1l0,0H78c0,0-7,10-8.1,11.6 c-1.1,1.6-2.7,3.9-1.4,4c1.6,0.1,7.1-6.2,9-8.7l0,0l0,0.1l4.4-6.9h3.8l-2,3.1c1.9-2.1,4.4-4.2,6.2-3.9c2.6,0.5,2.2,2.6,1.4,4.3 c2-2.3,4.6-4.7,6.6-4.3c3.7,0.8,1.3,4.6,0.4,6.1c-0.3,0.4-0.9,1.4-1.7,2.6l0,0L96,20.1c-0.8,1.2-1.8,2.7-2.7,4 c-0.7,1.2-1.5,2.8-0.5,3c1.1,0.2,3.3-1.6,3.8-2.1c0.6-0.7,0.9-0.7,0.7,0c-0.1,0.5-2.8,4.5-6.2,3.8c-3.7-0.9-1.3-4.6-0.4-6.1 c1-1.5,4.5-6.6,4.5-6.7c0.9-1.4,1.5-2.5,0.3-2.6c-1.6-0.1-6.4,5.4-8.3,7.9l0,0l0-0.1c-2,3-4.5,6.8-4.9,7.3l0,0.1h-3.8 c0,0,7.2-10.4,8.3-12c1.1-1.6,2-3,0.7-3.1c-1.6-0.1-6.3,5.2-8.2,7.7l0,0l-4.8,7.4h-3.6l2.5-4c-2,2.2-4.6,4.6-6.5,4.2 c-1.9-0.4-2.2-1.6-1.9-2.9c-2.5,2.4-5.3,3.9-7,2.4c-1.2-1.1-1.3-2.8-0.6-5c-2,2.5-5.3,6-7.6,5.5c-2.6-0.5-2.2-2.5-1.5-4.2 c-2,2.2-4.6,4.6-6.5,4.2c-2.6-0.5-2.2-2.5-1.5-4.2c-2,2.2-4.6,4.6-6.5,4.2c-2.4-0.5-2.3-2.2-1.6-3.8c-1.9,2.1-4.3,4.2-6.1,3.8 c-3.7-0.8-1.3-4.6-0.4-6.1c1-1.5,7.4-11,7.4-11l0,0h3.8c0,0-7,10-8.1,11.6c-1.1,1.6-2.7,3.9-1.4,4c1.4,0.1,5.6-4.6,7.8-7.3 c3.4-5,11.1-16.2,11.7-17.1l0-0.1H51.2z M71.6,12.8c-1.4-0.8-4.6,1.8-6.8,4.8c-2.2,3-5.4,8.4-4.2,9.1c1.4,0.9,4.5-2.5,6.9-5.4 c0.4-0.5,0.8-1,1.1-1.5c0.5-0.7,1-1.4,1.5-2.2C71.5,15.3,72.4,13.2,71.6,12.8z M36.6,6.2c0.8-0.9,2-1.1,2.7-0.5 C40,6.3,40,7.5,39.2,8.4s-2,1.1-2.7,0.5S35.8,7.1,36.6,6.2z M60.2,6.2c0.8-0.9,2-1.1,2.7-0.5s0.7,1.9-0.1,2.8s-2,1.1-2.7,0.5 C59.4,8.3,59.4,7.1,60.2,6.2z"></path><path fill="#ffffff" d="M109.7,17.4h-2.1v-5.9h-5.1v16.9h5.1v-6.7h2.1v6.7h5.1V11.5h-5.1V17.4z M116.9,11.5h4.8v16.9h-4.8V11.5z M128.9,11.5h-5.1v16.9h1.3h3.8h3.1v-5.3h-3.1V11.5z M138.7,23.1V11.5h-5.1v16.9h1.3h3.8h3.1v-5.3H138.7z M143.3,27.3L143.3,27.3 c0-0.4,0.2-0.8,0.5-1c0.3-0.2,0.8-0.2,1.1,0c0.3,0.2,0.6,0.6,0.6,1v0c0,0.4-0.2,0.8-0.5,1s-0.8,0.2-1.1,0 C143.5,28,143.3,27.7,143.3,27.3L143.3,27.3z M145.4,27.3L145.4,27.3c0-0.4-0.2-0.7-0.5-0.9s-0.7-0.2-1,0c-0.3,0.2-0.5,0.5-0.5,0.9 v0c0,0.3,0.2,0.7,0.5,0.8c0.3,0.2,0.7,0.2,1,0C145.2,28,145.4,27.6,145.4,27.3L145.4,27.3z M144,26.7h0.5c0.3,0,0.5,0.1,0.5,0.4 c0,0.2-0.1,0.3-0.3,0.4l0.3,0.4h-0.3l-0.2-0.4h-0.2v0.4H144V26.7z M144.5,27.2c0.1,0,0.2-0.1,0.2-0.2c0-0.1-0.1-0.2-0.2-0.2h-0.2 v0.3H144.5z M15.4,39.8l0.9-1.1c0.6,0.5,1.3,0.9,2.1,0.9c0.6,0,1-0.3,1-0.7v0c0-0.4-0.2-0.6-1.4-0.9c-1.4-0.4-2.3-0.8-2.3-2.1v0 c0-1.3,1-2.1,2.5-2.1c0.9,0,1.9,0.3,2.6,0.9l-0.8,1.2c-0.6-0.4-1.2-0.7-1.8-0.7s-0.9,0.3-0.9,0.6v0c0,0.5,0.3,0.6,1.5,0.9 c1.4,0.4,2.2,0.9,2.2,2.1v0c0,1.4-1.1,2.2-2.6,2.2C17.3,40.9,16.2,40.5,15.4,39.8L15.4,39.8z M26.1,33.8h2.9c1.7,0,2.7,1,2.7,2.4v0 c0,1.6-1.3,2.5-2.8,2.5h-1.2v2.1h-1.5V33.8z M28.8,37.4c0.8,0,1.2-0.5,1.2-1.1v0c0-0.7-0.5-1.1-1.3-1.1h-1.2v2.1L28.8,37.4z M36.3,37.3L36.3,37.3c0-2,1.6-3.6,3.7-3.6s3.7,1.6,3.7,3.6v0c0,2-1.6,3.6-3.7,3.6C37.8,40.9,36.3,39.3,36.3,37.3z M42.1,37.3 L42.1,37.3c0-1.2-0.9-2.2-2.1-2.2c-1.2,0-2.1,1-2.1,2.2v0c0,1.2,0.9,2.2,2.1,2.2C41.3,39.5,42.1,38.5,42.1,37.3L42.1,37.3z M48.9,33.8h3.2c0.9,0,1.6,0.3,2,0.7c0.4,0.4,0.6,1,0.6,1.6v0c0,1.1-0.6,1.8-1.5,2.2l1.7,2.5h-1.8l-1.5-2.2h-1.2v2.2h-1.5L48.9,33.8 z M52,37.2c0.8,0,1.2-0.4,1.2-1v0c0-0.7-0.5-1-1.2-1h-1.5v2L52,37.2z M61.5,35.2h-2.1v-1.4h5.8v1.4h-2.1v5.6h-1.5V35.2z M69.6,39.8 l0.9-1.1c0.6,0.5,1.3,0.9,2.1,0.9c0.6,0,1-0.3,1-0.7v0c0-0.4-0.2-0.6-1.4-0.9c-1.4-0.4-2.3-0.8-2.3-2.1v0c0-1.3,1-2.1,2.5-2.1 c0.9,0,1.9,0.3,2.6,0.9l-0.8,1.2c-0.6-0.4-1.2-0.7-1.8-0.7c-0.6,0-0.9,0.3-0.9,0.6v0c0,0.5,0.3,0.6,1.5,0.9c1.4,0.4,2.2,0.9,2.2,2.1 v0c0,1.4-1.1,2.2-2.6,2.2C71.5,40.9,70.5,40.5,69.6,39.8L69.6,39.8z M87.3,33.8h3.3c0.8,0,1.4,0.2,1.8,0.6c0.3,0.3,0.5,0.7,0.5,1.2 v0c0,0.8-0.4,1.2-0.9,1.5c0.8,0.3,1.3,0.8,1.3,1.7v0c0,1.3-1,1.9-2.6,1.9h-3.3V33.8z M91.3,35.9c0-0.5-0.4-0.7-1-0.7h-1.5v1.5h1.4 C90.9,36.7,91.3,36.4,91.3,35.9L91.3,35.9z M90.6,37.9h-1.8v1.5h1.8c0.7,0,1.1-0.2,1.1-0.8v0C91.7,38.2,91.4,37.9,90.6,37.9z M98,37.3L98,37.3c0-2,1.6-3.6,3.7-3.6s3.7,1.6,3.7,3.6v0c0,2-1.6,3.6-3.7,3.6C99.5,40.9,98,39.3,98,37.3z M103.8,37.3L103.8,37.3 c0-1.2-0.9-2.2-2.1-2.2c-1.2,0-2.1,1-2.1,2.2v0c0,1.2,0.9,2.2,2.1,2.2C103,39.5,103.8,38.5,103.8,37.3L103.8,37.3z M110.2,37.3 L110.2,37.3c0-2,1.6-3.6,3.7-3.6s3.7,1.6,3.7,3.6v0c0,2-1.6,3.6-3.7,3.6S110.2,39.3,110.2,37.3z M116.1,37.3L116.1,37.3 c0-1.2-0.9-2.2-2.1-2.2s-2.1,1-2.1,2.2v0c0,1.2,0.9,2.2,2.1,2.2S116.1,38.5,116.1,37.3L116.1,37.3z M122.8,33.8h1.5v3.1l2.8-3.1h1.9 l-2.9,3l3,4h-1.9l-2.2-3l-0.8,0.8v2.1h-1.5V33.8z"></path></svg>